<svg width="39" height="42" viewBox="0 0 39 42" fill="none" xmlns="http://www.w3.org/2000/svg">
<path d="M20.6282 28.434H3.1427L8.67482 18.3219L3.1427 8.20982L11.8854 18.3219L20.6282 0L29.3709 18.3219L38.1136 8.20982L32.7791 18.3219L38.1136 28.434H20.6282Z" fill="black"/>
<path d="M7.83074 38.654C7.705 39.7231 7.30682 40.5491 6.63622 41.1323C5.97027 41.7108 5.08311 42 3.97474 42C2.77324 42 1.80924 41.5719 1.08275 40.7157C0.360917 39.8596 0 38.7142 0 37.2795V36.3076C0 35.3682 0.167652 34.5421 0.502955 33.8294C0.842916 33.1167 1.32259 32.5706 1.94197 32.1911C2.56135 31.807 3.27852 31.6149 4.0935 31.6149C5.17392 31.6149 6.04012 31.9157 6.6921 32.5174C7.34408 33.1144 7.72363 33.9428 7.83074 35.0026H6.48254C6.36611 34.1973 6.11231 33.6142 5.72112 33.2532C5.33459 32.8922 4.79205 32.7117 4.0935 32.7117C3.23661 32.7117 2.56368 33.0264 2.07469 33.6558C1.59036 34.2852 1.3482 35.1807 1.3482 36.3424V37.3212C1.3482 38.418 1.57872 39.2903 2.03976 39.9383C2.50081 40.5862 3.1458 40.9101 3.97474 40.9101C4.71986 40.9101 5.29035 40.7435 5.68619 40.4103C6.08669 40.0725 6.35214 39.487 6.48254 38.654H7.83074Z" fill="black"/>
<path d="M13.3982 37.7724H11.0091V41.8612H9.66094V31.7538H13.0279C14.1736 31.7538 15.0537 32.0129 15.6685 32.5313C16.2878 33.0496 16.5975 33.8039 16.5975 34.7943C16.5975 35.4237 16.4252 35.9721 16.0806 36.4395C15.7406 36.907 15.2656 37.2564 14.6556 37.4878L17.0446 41.7779V41.8612H15.6056L13.3982 37.7724ZM11.0091 36.6825H13.0699C13.7358 36.6825 14.2644 36.5113 14.6556 36.1688C15.0514 35.8263 15.2493 35.3682 15.2493 34.7943C15.2493 34.1695 15.0607 33.6906 14.6835 33.3573C14.3109 33.0241 13.7707 32.8552 13.0629 32.8506H11.0091V36.6825Z" fill="black"/>
<path d="M20.6771 38.6748L20.8726 40.0077L21.1591 38.8067L23.1709 31.7538H24.3025L26.2654 38.8067L26.5449 40.0285L26.7614 38.6679L28.3401 31.7538H29.6883L27.2225 41.8612H26L23.9044 34.4958L23.7437 33.7253L23.583 34.4958L21.4105 41.8612H20.1881L17.7292 31.7538H19.0704L20.6771 38.6748Z" fill="black"/>
<path d="M39 41.8612H37.6518L32.5314 34.0724V41.8612H31.1832V31.7538H32.5314L37.6658 39.5773V31.7538H39V41.8612Z" fill="black"/>
</svg>
